<svg width="20" height="21" viewBox="0 0 20 21" fill="none" xmlns="http://www.w3.org/2000/svg">
<g id="Download_light">
<path id="Vector 9" d="M10 13.4166L9.50503 13.9116L10 14.4066L10.495 13.9116L10 13.4166ZM10.7 3.41663C10.7 3.03003 10.3866 2.71663 10 2.71663C9.6134 2.71663 9.3 3.03003 9.3 3.41663L10.7 3.41663ZM4.50503 8.9116L9.50503 13.9116L10.495 12.9217L5.49497 7.92165L4.50503 8.9116ZM10.495 13.9116L15.495 8.9116L14.505 7.92165L9.50503 12.9217L10.495 13.9116ZM10.7 13.4166L10.7 3.41663L9.3 3.41663L9.3 13.4166L10.7 13.4166Z" fill="white"/>
<path id="Vector 4" d="M4.16699 17.5833H15.8337" stroke="white" stroke-width="1.4"/>
</g>
</svg>
