<svg width="28" height="29" viewBox="0 0 28 29" fill="none" xmlns="http://www.w3.org/2000/svg">
<g id="Folder_check">
<path id="Rectangle 4018" d="M5.83301 14.0832V9.91656C5.83301 8.03095 5.83301 7.08814 6.41879 6.50235C7.00458 5.91656 7.94739 5.91656 9.83301 5.91656H11.1762C11.9937 5.91656 12.4024 5.91656 12.7699 6.06881C13.1375 6.22105 13.4265 6.51008 14.0046 7.08814L15.1614 8.24499C15.7395 8.82305 16.0285 9.11208 16.3961 9.26432C16.7636 9.41656 17.1724 9.41656 17.9899 9.41656H20.4997C22.3853 9.41656 23.3281 9.41656 23.9139 10.0024C24.4997 10.5881 24.4997 11.5309 24.4997 13.4166V18.2499C24.4997 20.1355 24.4997 21.0783 23.9139 21.6641C23.3281 22.2499 22.3853 22.2499 20.4997 22.2499H13.9997" stroke="white" stroke-width="2"/>
<path id="Rectangle 4021" d="M4.66699 19.3332L7.58366 22.2499L13.417 16.4166" stroke="white" stroke-width="2"/>
</g>
</svg>
