<svg width="20" height="21" viewBox="0 -1 20 21" fill="none" xmlns="http://www.w3.org/2000/svg">
<g id="Outline/Status/Heartbeat">
<g id="Icon">
<path d="M1.875 8.44141C1.875 6.191 3.84929 4.45825 6.16667 4.45825C7.36123 4.45825 8.41237 5.01837 9.16667 5.74311C9.92097 5.01837 10.9721 4.45825 12.1667 4.45825C14.484 4.45825 16.4583 6.191 16.4583 8.44141C16.4583 8.57673 16.4533 8.71061 16.4434 8.84304C16.434 8.96963 16.3266 9.06473 16.1996 9.06473H15.4519C15.2989 9.06473 15.1824 8.92856 15.1948 8.7761C15.2038 8.66528 15.2083 8.55372 15.2083 8.44141C15.2083 6.9825 13.8994 5.70825 12.1667 5.70825C11.1715 5.70825 10.2423 6.30277 9.66214 7.05735C9.54383 7.21122 9.36076 7.30139 9.16667 7.30139C8.97258 7.30139 8.7895 7.21122 8.6712 7.05735C8.091 6.30277 7.16179 5.70825 6.16667 5.70825C4.43396 5.70825 3.125 6.9825 3.125 8.44141C3.125 9.611 3.62149 10.6999 4.42174 11.7068C5.22357 12.7156 6.30244 13.6057 7.39229 14.3607C7.80468 14.6464 8.19312 14.8895 8.52538 15.0587C8.88221 15.2405 9.08889 15.2916 9.16667 15.2916C9.24445 15.2916 9.45113 15.2405 9.80796 15.0587C10.1402 14.8895 10.5287 14.6464 10.941 14.3607C11.296 14.1148 11.6498 13.8545 11.9933 13.5805C12.1146 13.4838 12.2943 13.5163 12.3714 13.6509L12.7478 14.3079C12.8088 14.4144 12.7836 14.5497 12.6871 14.6257C12.3438 14.8962 11.9961 15.1505 11.6529 15.3882C11.2179 15.6895 10.7779 15.9675 10.3752 16.1726C9.99709 16.3652 9.56229 16.5416 9.16667 16.5416C8.77105 16.5416 8.33624 16.3652 7.95811 16.1726C7.5554 15.9675 7.11539 15.6895 6.68044 15.3882C5.54171 14.5993 4.35239 13.6285 3.44318 12.4845C2.5324 11.3386 1.875 9.98298 1.875 8.44141Z" fill="white"/>
<path d="M12.339 8.15618C12.2493 7.96052 12.0653 7.82477 11.8519 7.79686C11.6385 7.76896 11.4257 7.85283 11.2887 8.01885L9.56649 10.1064H8.33333C7.98816 10.1064 7.70833 10.3862 7.70833 10.7314C7.70833 11.0766 7.98816 11.3564 8.33333 11.3564H9.86111C10.0477 11.3564 10.2245 11.2731 10.3432 11.1291L11.6182 9.58368L13.1124 12.8437C13.2021 13.0393 13.3861 13.1751 13.5995 13.203C13.8129 13.2309 14.0257 13.147 14.1627 12.981L15.503 11.3564H17.5C17.8452 11.3564 18.125 11.0766 18.125 10.7314C18.125 10.3862 17.8452 10.1064 17.5 10.1064H15.2083C15.0218 10.1064 14.845 10.1898 14.7262 10.3337L13.8332 11.4162L12.339 8.15618Z" fill="white"/>
</g>
</g>
</svg>
