<svg width="32" height="33" viewBox="0 0 32 33" fill="none" xmlns="http://www.w3.org/2000/svg">
<g id="Outline/Status/Heartbeat">
<g id="Icon">
<path d="M3 14.2822C3 10.6816 6.15886 7.90918 9.86667 7.90918C11.778 7.90918 13.4598 8.80536 14.6667 9.96496C15.8735 8.80536 17.5554 7.90918 19.4667 7.90918C23.1745 7.90918 26.3333 10.6816 26.3333 14.2822C26.3333 14.4987 26.3252 14.7129 26.3095 14.9248C26.2944 15.1274 26.1225 15.2795 25.9194 15.2795H24.723C24.4783 15.2795 24.2919 15.0617 24.3116 14.8177C24.326 14.6404 24.3333 14.4619 24.3333 14.2822C24.3333 11.948 22.239 9.90918 19.4667 9.90918C17.8745 9.90918 16.3877 10.8604 15.4594 12.0677C15.2701 12.3139 14.9772 12.4582 14.6667 12.4582C14.3561 12.4582 14.0632 12.3139 13.8739 12.0677C12.9456 10.8604 11.4589 9.90918 9.86667 9.90918C7.09434 9.90918 5 11.948 5 14.2822C5 16.1536 5.79438 17.8958 7.07479 19.5068C8.35771 21.1209 10.0839 22.5451 11.8277 23.7531C12.4875 24.2102 13.109 24.5992 13.6406 24.8699C14.2115 25.1607 14.5422 25.2425 14.6667 25.2425C14.7911 25.2425 15.1218 25.1607 15.6927 24.8699C16.2243 24.5992 16.8458 24.2102 17.5057 23.7531C18.0737 23.3596 18.6398 22.9432 19.1893 22.5048C19.3833 22.35 19.6709 22.4021 19.7943 22.6174L20.3965 23.6685C20.4942 23.839 20.4537 24.0554 20.2994 24.177C19.7501 24.6099 19.1937 25.0168 18.6446 25.3971C17.9487 25.8793 17.2447 26.324 16.6004 26.6521C15.9953 26.9603 15.2997 27.2425 14.6667 27.2425C14.0337 27.2425 13.338 26.9603 12.733 26.6521C12.0886 26.324 11.3846 25.8793 10.6887 25.3971C8.86673 24.1349 6.96383 22.5815 5.50909 20.7512C4.05184 18.9178 3 16.7487 3 14.2822Z" 
fill="#C4C4C4"/>
<path d="M19.7424 13.8259C19.5989 13.5128 19.3044 13.2956 18.963 13.251C18.6215 13.2063 18.2811 13.3405 18.062 13.6061L15.3064 16.9462H13.3333C12.781 16.9462 12.3333 17.3939 12.3333 17.9462C12.3333 18.4985 12.781 18.9462 13.3333 18.9462H15.7778C16.0763 18.9462 16.3592 18.8129 16.5492 18.5826L18.5892 16.1099L20.9798 21.3258C21.1233 21.6389 21.4178 21.8561 21.7592 21.9007C22.1007 21.9454 22.4411 21.8112 22.6603 21.5456L24.8047 18.9462H28C28.5523 18.9462 29 18.4985 29 17.9462C29 17.3939 28.5523 16.9462 28 16.9462H24.3333C24.0348 16.9462 23.7519 17.0796 23.562 17.3098L22.1331 19.0418L19.7424 13.8259Z" 
fill="#C4C4C4"/>
</g>
</g>
</svg>
