<svg width="32" height="33" viewBox="0 0 32 33" fill="none" xmlns="http://www.w3.org/2000/svg">
<g id="Home">
<path id="Rectangle 1" d="M6.6665 17.9219C6.6665 16.1116 6.6665 15.2064 7.03245 14.4107C7.3984 13.6151 8.08566 13.026 9.46017 11.8479L10.7935 10.705C13.2779 8.57549 14.5201 7.51074 15.9998 7.51074C17.4795 7.51074 18.7217 8.57549 21.2062 10.705L22.5395 11.8479C23.914 13.026 24.6013 13.6151 24.9672 14.4107C25.3332 15.2064 25.3332 16.1116 25.3332 17.9219V23.5758C25.3332 26.0899 25.3332 27.347 24.5521 28.128C23.7711 28.9091 22.514 28.9091 19.9998 28.9091H11.9998C9.48568 28.9091 8.2286 28.9091 7.44755 28.128C6.6665 27.347 6.6665 26.0899 6.6665 23.5758V17.9219Z" 
stroke="#C4C4C4" stroke-width="2"/>
<path id="Vector 3" d="M19.3332 28.9092V21.9092C19.3332 21.3569 18.8855 20.9092 18.3332 20.9092H13.6665C13.1142 20.9092 12.6665 21.3569 12.6665 21.9092V28.9092" 
stroke="#C4C4C4" stroke-width="2" stroke-linecap="round" stroke-linejoin="round"/>
</g>
</svg>
