<svg width="22" height="18" viewBox="0 0 22 18" fill="none" xmlns="http://www.w3.org/2000/svg">
<path id="Vector 10" d="M2 6.83335L1.29289 7.54046L0.585786 6.83335L1.29289 6.12625L2 6.83335ZM21.6667 16.1667C21.6667 16.719 21.219 17.1667 20.6667 17.1667C20.1144 17.1667 19.6667 16.719 19.6667 16.1667L21.6667 16.1667ZM7.12623 13.3738L1.29289 7.54046L2.70711 6.12625L8.54044 11.9596L7.12623 13.3738ZM1.29289 6.12625L7.12623 0.292912L8.54044 1.70713L2.70711 7.54046L1.29289 6.12625ZM2 5.83335L14.6667 5.83335L14.6667 7.83335L2 7.83335L2 5.83335ZM21.6667 12.8334L21.6667 16.1667L19.6667 16.1667L19.6667 12.8334L21.6667 12.8334ZM14.6667 5.83335C18.5327 5.83335 21.6667 8.96736 21.6667 12.8334L19.6667 12.8334C19.6667 10.0719 17.4281 7.83335 14.6667 7.83335L14.6667 5.83335Z" fill="white"/>
</svg>
