<svg width="32" height="33" viewBox="0 0 32 33" fill="none" xmlns="http://www.w3.org/2000/svg">
<g id="Outline/Communication/User">
<g id="Icon">
<path fill-rule="evenodd" clip-rule="evenodd" d="M10.3332 10.9091C10.3332 7.77948 12.8702 5.24243 15.9998 5.24243C19.1294 5.24243 21.6665 7.77948 21.6665 10.9091C21.6665 14.0387 19.1294 16.5758 15.9998 16.5758C12.8702 16.5758 10.3332 14.0387 10.3332 10.9091ZM15.9998 7.24243C13.9748 7.24243 12.3332 8.88405 12.3332 10.9091C12.3332 12.9341 13.9748 14.5758 15.9998 14.5758C18.0249 14.5758 19.6665 12.9341 19.6665 10.9091C19.6665 8.88405 18.0249 7.24243 15.9998 7.24243Z" fill="white"/>
<path fill-rule="evenodd" clip-rule="evenodd" d="M10.6665 20.5758C9.00965 20.5758 7.6665 21.9189 7.6665 23.5758V25.1601C7.6665 25.1843 7.68399 25.2048 7.7078 25.2087C13.1995 26.1053 18.8002 26.1053 24.2919 25.2087C24.3157 25.2048 24.3332 25.1843 24.3332 25.1601V23.5758C24.3332 21.9189 22.99 20.5758 21.3332 20.5758H20.8787C20.8435 20.5758 20.8086 20.5813 20.7752 20.5922L19.6212 20.9691C17.2681 21.7374 14.7316 21.7374 12.3785 20.9691L11.2245 20.5922C11.1911 20.5813 11.1561 20.5758 11.121 20.5758H10.6665ZM5.6665 23.5758C5.6665 20.8143 7.90508 18.5758 10.6665 18.5758H11.121C11.367 18.5758 11.6114 18.6147 11.8453 18.691L12.9993 19.0678C14.949 19.7045 17.0507 19.7045 19.0004 19.0678L20.1544 18.691C20.3882 18.6147 20.6327 18.5758 20.8787 18.5758H21.3332C24.0946 18.5758 26.3332 20.8143 26.3332 23.5758V25.1601C26.3332 26.1645 25.6053 27.0208 24.6141 27.1826C18.909 28.114 13.0906 28.114 7.38553 27.1826C6.39435 27.0208 5.6665 26.1644 5.6665 25.1601V23.5758Z" fill="white"/>
</g>
</g>
</svg>
